<svg xmlns="http://www.w3.org/2000/svg" width="796" height="574" viewBox="0 0 796 574" fill="none"><defs><linearGradient id="g" x1="0" y1="0" x2="1" y2="1"><stop offset="0" stop-color="#f3dc86"/><stop offset=".55" stop-color="#d4a73a"/><stop offset="1" stop-color="#b2842a"/></linearGradient></defs><rect width="796" height="574" fill="url(#g)"/><text x="398" y="300" text-anchor="middle" font-family="Georgia, 'Times New Roman', serif" font-style="italic" font-size="130" fill="#9a7120" opacity=".85">Champion</text><text x="398" y="350" text-anchor="middle" font-family="Arial Black, 'Arial Bold', Arial, Helvetica, sans-serif" font-size="20" letter-spacing="8" fill="#6f5116">COLLECTION</text><g transform="translate(470 330) scale(.6)"><path d="M110 20C112 60 100 110 80 132C62 152 30 148 32 128C34 108 80 100 118 92C122 104 124 110 132 110C142 110 146 92 150 84C150 100 152 110 160 110C170 110 176 90 182 84C184 96 184 104 186 110C192 92 206 80 214 90C218 98 216 108 224 110C236 110 240 88 256 86C272 84 276 104 262 110C248 116 240 100 256 90C290 70 340 60 380 70M60 126C150 120 260 116 350 98" stroke="#3b2a08" stroke-width="6" stroke-linecap="round" stroke-linejoin="round"/></g></svg>